<svg xmlns="http://www.w3.org/2000/svg" xmlns:xlink="http://www.w3.org/1999/xlink" viewBox="0 0 90.54 81.47"><defs><style>.cls-1,.cls-2,.cls-6{fill:#fff;}.cls-1,.cls-5,.cls-6,.cls-7{stroke:#231815;}.cls-1,.cls-7{stroke-miterlimit:10;stroke-width:0.5px;}.cls-3{clip-path:url(#clip-path);}.cls-4{fill:#bce2e8;}.cls-5,.cls-7{fill:none;}.cls-5,.cls-6{stroke-linecap:round;stroke-linejoin:round;stroke-width:0.37px;}</style><clipPath id="clip-path"><rect class="cls-1" x="3.84" y="1.23" width="83.81" height="74.83"/></clipPath></defs><title>アセット 4</title><g id="レイヤー_2" data-name="レイヤー 2"><g id="壁位置選択ボタン-Wタイプ"><rect class="cls-2" x="3.84" y="1.23" width="83.81" height="74.83"/><g class="cls-3"><polygon class="cls-4" points="1.39 1 87.68 1.47 87.5 40.31 66.77 40.41 66.77 59.06 66.8 59.04 90.35 80.27 90.35 0.19 0.19 0.19 0.3 80.38 45.78 80.38 45.78 59.1 43.38 59.14 42.94 61.05 22.48 61.05 22.39 19.62 10.75 9.43 1.39 1"/><polyline class="cls-5" points="40.54 22.8 65.56 22.8 65.56 57.82 43.54 57.82"/><polyline class="cls-5" points="40.54 21.58 66.77 21.58 66.77 59.04 43.39 59.04"/><line class="cls-5" x1="0.19" y1="0.19" x2="22.39" y2="19.62"/><line class="cls-5" x1="22.39" y1="61" x2="0.19" y2="80.28"/><line class="cls-5" x1="90.35" y1="80.28" x2="66.77" y2="59.04"/><path class="cls-5" d="M41.68,59.22a.5.5,0,0,1-.5.5.5.5,0,0,1-.5-.5.51.51,0,0,1,.5-.5A.5.5,0,0,1,41.68,59.22Z"/><rect class="cls-5" x="41.48" y="36.95" width="1.15" height="8.66" transform="translate(-11.46 16.61) rotate(-19.72)"/><path class="cls-5" d="M40.47,38.11l.2-.07s.06,0,.07.06l2.32,6.47s0,.08,0,.09l-.21.07Z"/><line class="cls-5" x1="40.33" y1="21.62" x2="40.07" y2="19.66"/><line class="cls-5" x1="66.8" y1="40.32" x2="90.35" y2="40.32"/><line class="cls-5" x1="45.79" y1="80.28" x2="45.79" y2="59.04"/><polyline class="cls-5" points="47.3 80.28 47.3 60.54 66.33 60.54 88.14 80.19"/><g id="ARC"><path class="cls-6" d="M63.16,20.08a.58.58,0,0,0-.41-.17H58a.28.28,0,0,0-.28.29v0h0A11.49,11.49,0,0,0,68.06,30.59h0a.29.29,0,0,0,.31-.26v-4.8a.58.58,0,0,0-.17-.41Z"/></g><path class="cls-6" d="M65.91,26.73l-4.47-4.32s.17-.23.33-.42a7,7,0,0,1,.89-.91l4.47,4.3c.13.12-.24.61-.69,1A1.39,1.39,0,0,1,65.91,26.73Z"/><polygon class="cls-6" points="74.27 6.42 63.4 19.41 68.55 24.49 81.85 14.29 82.51 13.8 74.27 6.42"/><line class="cls-5" x1="73.78" y1="7.03" x2="81.85" y2="14.29"/><path class="cls-6" d="M62.28,23.22l2.8,2.7a23.84,23.84,0,0,0,2.2-2.17L64.41,21s-1.6,1.77-1.73,1.9Z"/><path class="cls-6" d="M22.47,19.57V61H43l0-.09a28.61,28.61,0,0,0-1-14.85q-1.57-4.59-3.21-9.15A12.73,12.73,0,0,1,38,32.53a15.49,15.49,0,0,1,.5-3.89l.55-2.13a26.2,26.2,0,0,0,.82-6.77v-.17H22.47"/><path class="cls-5" d="M43.36,58.78a25,25,0,0,0-1-13.53c-1-2.78-2-5.55-3-8.31a11.47,11.47,0,0,1-.73-4,13.72,13.72,0,0,1,.47-3.54l.46-1.94a23.77,23.77,0,0,0,.82-5.83"/><line class="cls-6" x1="63.71" y1="19.07" x2="68.86" y2="24.15"/><line class="cls-6" x1="79.23" y1="0.48" x2="74" y2="6.73"/><line class="cls-6" x1="81.85" y1="14.29" x2="90.11" y2="7.95"/><g id="ARC-2" data-name="ARC"><path class="cls-5" d="M23.73,28.33q-.3,11.37-.11,22.75a8.9,8.9,0,1,0,17.8-.3A8.77,8.77,0,0,0,41,48.33q-2.25-7.38-4.73-14.68a2.61,2.61,0,0,1,.16-2,6.74,6.74,0,1,0-12.73-3.29Z"/></g><g id="LINE"><path class="cls-5" d="M23.59,35.23a2.75,2.75,0,0,1,1.93-2.62,31.06,31.06,0,0,1,6-1.22A4.9,4.9,0,0,1,36.69,35"/></g><circle class="cls-5" cx="36.49" cy="40.9" r="0.88"/><path class="cls-5" d="M41.68,59.22a.5.5,0,0,1-.5.5.5.5,0,0,1-.5-.5.51.51,0,0,1,.5-.5A.5.5,0,0,1,41.68,59.22Z"/><line class="cls-5" x1="47.3" y1="68.54" x2="59.94" y2="68.54"/><line class="cls-5" x1="47.3" y1="69.91" x2="60.58" y2="69.91"/><polyline class="cls-6" points="64.27 79.33 56.38 60.63 57.73 60.63 68.56 81.28"/></g><rect class="cls-7" x="3.84" y="1.23" width="83.81" height="74.83"/></g></g></svg>