<svg xmlns="http://www.w3.org/2000/svg" viewBox="0 0 126.57 37.28"><defs><style>.cls-1{fill:#3e3a39;}</style></defs><title>アセット 5</title><g id="レイヤー_2" data-name="レイヤー 2"><g id="題名"><path class="cls-1" d="M28.06,5.4V1.52c0-.6.54-.56,2.12-.46a2.16,2.16,0,0,1,2,2.22c0,1.39-1,2.12-2.73,2.12h-1.4m-1.75,4.89c0,.5-.25,1.05-1.64,1.05v.32h5.39c2.68,0,4.46-1.06,4.46-3.11,0-1.64-1.38-2.55-2.85-2.82v0a2.47,2.47,0,0,0,2.27-2.46c0-2.19-2-2.89-4.69-2.89H24.67V.67c1.39,0,1.64.55,1.64,1Zm1.75-4.2h.85c1.61,0,3.64.37,3.64,2.41S31.24,11,29.46,11c-1.25,0-1.4-.31-1.4-.91Z"/><path class="cls-1" d="M41,6.74c0-2.11-.57-2.91-2.45-2.91a2.86,2.86,0,0,0-2.71,1.28c-.36.65-.21,1.34.57,1.34a.79.79,0,0,0,.76-.76c0-.44-.09-.78,0-1a1.42,1.42,0,0,1,1.11-.48c1.07,0,1.24.67,1.24,2.46-1.45.61-4.2,1.31-4.2,3.36a1.78,1.78,0,0,0,1.79,1.79,4.48,4.48,0,0,0,2.5-1.29,1.19,1.19,0,0,0,1.23,1.29,2.52,2.52,0,0,0,1.4-.9v-.45c-.82.58-1.26.5-1.26-.13V6.74m-1.46,3.33a2.33,2.33,0,0,1-1.5.75c-.82,0-1.2-.65-1.2-1.4,0-1.54,1.63-1.83,2.7-2.27Z"/><path class="cls-1" d="M44.83,9.17c0,1.26.17,2.08,1.25,1.65a1.57,1.57,0,0,0,.63-.51l.22.19a2.89,2.89,0,0,1-2.2,1.33c-1.13,0-1.39-.7-1.35-2.37V4.55h-.52c-.2,0-.59.1-.44-.26a12.78,12.78,0,0,0,2.41-2.55V4h1.69v.55H44.83V9.17"/><path class="cls-1" d="M48.17,2.09c0-1.1-.18-1-1.08-1V.75c.58-.15,1-.24,1.45-.39L49.62,0V5.2h0a3.06,3.06,0,0,1,2.43-1.37c1.73,0,2.16,1,2.16,2.89v3.57c0,.76.25,1.06,1.07,1.13v.24h-3.6v-.24c.82-.07,1.07-.37,1.07-1.13V6.74c0-1-.07-2-1.3-2a2.31,2.31,0,0,0-1.86,1v4.53c0,.76.25,1.06,1.08,1.13v.24H47.09v-.24c.82-.07,1.08-.37,1.08-1.13V2.09"/><path class="cls-1" d="M59.14,8.23h.39a4,4,0,0,0,3.55,3A1.94,1.94,0,0,0,65,8.72c-.7-2.4-5.37-2.5-5.37-5.76a2.87,2.87,0,0,1,3-2.86c1.81,0,2.63,1.27,3,0h.36l.38,3.64H66C65.62,2.15,64.5.8,62.9.8a1.61,1.61,0,0,0-1.79,1.65c0,1,1.08,1.69,1.81,2.13,2.33,1.4,3.9,2.14,3.9,4.19a3.31,3.31,0,0,1-3.61,3.13c-1.77,0-3-1.25-3.18,0h-.37l-.52-3.67"/><path class="cls-1" d="M72.7,6.74c0-2.11-.56-2.91-2.44-2.91a2.87,2.87,0,0,0-2.72,1.28c-.36.65-.21,1.34.58,1.34a.79.79,0,0,0,.75-.76,3.05,3.05,0,0,1,0-1A1.42,1.42,0,0,1,70,4.22c1.08,0,1.25.67,1.25,2.46C69.79,7.29,67,8,67,10a1.78,1.78,0,0,0,1.8,1.79,4.45,4.45,0,0,0,2.49-1.29,1.19,1.19,0,0,0,1.23,1.29,2.55,2.55,0,0,0,1.41-.9v-.45c-.82.58-1.27.5-1.27-.13V6.74m-1.45,3.33a2.36,2.36,0,0,1-1.51.75c-.82,0-1.19-.65-1.19-1.4,0-1.54,1.63-1.83,2.7-2.27Z"/><path class="cls-1" d="M75.68,2.09c0-1.25-.14-1.1-1.32-1.1V.75A19.12,19.12,0,0,0,77.13,0V10.29c0,.76.26,1.06,1.32,1.13v.24H74.36v-.24c1.06-.07,1.32-.37,1.32-1.13V2.09"/><path class="cls-1" d="M82.82,3.83c-2.35,0-3.69,1.83-3.69,4.1a3.76,3.76,0,0,0,3.69,3.9,4,4,0,0,0,3.84-4.24,3.62,3.62,0,0,0-3.84-3.76m.31,7.49c-1.62,0-2.44-1.9-2.42-4.31,0-1.49.64-2.67,1.91-2.67,1.95,0,2.46,2.52,2.46,4.06S84.47,11.32,83.13,11.32Z"/><path class="cls-1" d="M91.05,3.83c-2.36,0-3.69,1.83-3.69,4.1a3.75,3.75,0,0,0,3.69,3.9,4,4,0,0,0,3.83-4.24,3.61,3.61,0,0,0-3.83-3.76m.31,7.49c-1.62,0-2.45-1.9-2.43-4.31,0-1.49.65-2.67,1.92-2.67,1.94,0,2.46,2.52,2.46,4.06S92.69,11.32,91.36,11.32Z"/><path class="cls-1" d="M96.3,6.1c0-1.29-.15-1.28-1.08-1.23V4.63l2.54-.8V5.2a3.48,3.48,0,0,1,2.61-1.37c1.34,0,2,.92,2,2.75v3.71c0,.76.26,1.06,1.08,1.13v.24H99.84v-.24c.82-.07,1.08-.37,1.08-1.13V6.62c0-1-.09-1.88-1.3-1.88a2.63,2.63,0,0,0-1.86,1v4.56c0,.76.25,1.06,1.07,1.13v.24H95.22v-.24c.83-.07,1.08-.37,1.08-1.13V6.1"/><path class="cls-1" d="M0,36.12a5.42,5.42,0,0,0,2.52-.68c.38-.32.58-1.13.58-2.42V17.72a3.49,3.49,0,0,0-.57-2.39A4.23,4.23,0,0,0,0,14.63V14H18.57l.18,4.85h-.88a4.79,4.79,0,0,0-1.34-2.95c-.59-.45-1.92-.67-4-.67H7.79c-.52,0-.83.08-1,.24a1.67,1.67,0,0,0-.18.93v7.76H12c1.5,0,2.45-.21,2.86-.64a5.44,5.44,0,0,0,1-2.63h.82v7.89h-.82a5.61,5.61,0,0,0-1-2.63c-.41-.43-1.35-.64-2.84-.64H6.66V34c0,.69.22,1.09.65,1.22a23.09,23.09,0,0,0,3.93.18,13.46,13.46,0,0,0,5.24-.76c1.12-.5,2.15-1.73,3.07-3.67h.95L19,36.76H0v-.64"/><path class="cls-1" d="M30.11,31.44h.56a8.66,8.66,0,0,0,1.06,3,3.89,3.89,0,0,0,3.5,1.88,2.81,2.81,0,0,0,2-.7,2.32,2.32,0,0,0,.74-1.8,2.49,2.49,0,0,0-.42-1.35,4.42,4.42,0,0,0-1.51-1.26l-1.91-1.07a10.83,10.83,0,0,1-3.1-2.23,3.86,3.86,0,0,1-1-2.66,4,4,0,0,1,1.36-3.08,5,5,0,0,1,3.41-1.21,6.54,6.54,0,0,1,2,.34A9.4,9.4,0,0,0,38,21.6a1,1,0,0,0,.44-.07.64.64,0,0,0,.24-.25h.46L39.28,26h-.47a7.55,7.55,0,0,0-.93-2.53,3.45,3.45,0,0,0-3.08-1.67,2.53,2.53,0,0,0-1.9.71,2.35,2.35,0,0,0-.69,1.68c0,1,.79,1.95,2.36,2.76l2.25,1.19c2.42,1.29,3.63,2.78,3.63,4.49a4,4,0,0,1-1.51,3.23A6,6,0,0,1,35,37.05a9,9,0,0,1-2.31-.34,10.64,10.64,0,0,0-1.53-.33.49.49,0,0,0-.35.15,1,1,0,0,0-.24.34h-.47V31.44"/><path class="cls-1" d="M61.57,22.07a3,3,0,0,1,1.54,2.37,1.6,1.6,0,0,1-.39,1,1.67,1.67,0,0,1-2.26.06,2.41,2.41,0,0,1-.66-1.18l-.2-.81a2.09,2.09,0,0,0-.77-1.26,2.74,2.74,0,0,0-1.49-.36,4,4,0,0,0-3.28,1.67A6.84,6.84,0,0,0,52.72,28a7.54,7.54,0,0,0,1.47,4.54,4.68,4.68,0,0,0,4,2,4.82,4.82,0,0,0,3.16-1.14,11.17,11.17,0,0,0,1.77-2.07l.48.27a13.49,13.49,0,0,1-2,3.16,6.31,6.31,0,0,1-4.77,2.23,6.44,6.44,0,0,1-4.7-2,7.57,7.57,0,0,1-2-5.58,8.65,8.65,0,0,1,2.23-5.94A7.25,7.25,0,0,1,57.9,21a6.24,6.24,0,0,1,3.67,1.08"/><path class="cls-1" d="M72.91,29a8.26,8.26,0,0,0,2.27,5.94,7.4,7.4,0,0,0,5.55,2.37,7.06,7.06,0,0,0,5.57-2.46A8.61,8.61,0,0,0,88.45,29a7.81,7.81,0,0,0-2.22-5.82A7.65,7.65,0,0,0,80.63,21a7.27,7.27,0,0,0-5.56,2.31A8,8,0,0,0,72.91,29m7.23-7A4.14,4.14,0,0,1,84,24.52,12,12,0,0,1,85.29,30a8.75,8.75,0,0,1-1,4.56,3.26,3.26,0,0,1-3,1.75,4.24,4.24,0,0,1-3.84-2.6,11.83,11.83,0,0,1-1.38-5.62q0-3.78,1.71-5.31A3.4,3.4,0,0,1,80.14,21.93Z"/><path class="cls-1" d="M97.05,36.29a3.87,3.87,0,0,0,2.06-.57,2.36,2.36,0,0,0,.51-1.82V26.36a6.59,6.59,0,0,0-.32-2.45,1.15,1.15,0,0,0-1.15-.74,3.2,3.2,0,0,0-.45,0c-.19,0-.39.06-.59.11v-.47l2-.69c.69-.23,1.16-.4,1.42-.5.57-.22,1.16-.46,1.77-.74a.14.14,0,0,1,.15.09,3,3,0,0,1,0,.39v2.81a13.07,13.07,0,0,1,2.08-2.37,3.14,3.14,0,0,1,2.07-.86,1.94,1.94,0,0,1,1.39.52,1.91,1.91,0,0,1,.13,2.51,1.33,1.33,0,0,1-1,.47,1.93,1.93,0,0,1-1.28-.58,1.81,1.81,0,0,0-1-.59c-.39,0-.87.31-1.44.94a2.89,2.89,0,0,0-.85,2v7.5a2.56,2.56,0,0,0,.68,2,3.37,3.37,0,0,0,2.24.53v.47H97.05v-.47"/><path class="cls-1" d="M125.7,21.28v1.17h-3.51l0,9.65a6.21,6.21,0,0,0,.22,1.92A1.59,1.59,0,0,0,124,35.18a2,2,0,0,0,1.08-.28,5.78,5.78,0,0,0,1-.89l.44.38-.38.5a5.44,5.44,0,0,1-1.88,1.67,4.27,4.27,0,0,1-1.91.49,2.7,2.7,0,0,1-2.74-1.76,7.25,7.25,0,0,1-.39-2.66V22.45H117.4a.34.34,0,0,1-.13-.1.17.17,0,0,1,0-.13.42.42,0,0,1,.07-.26c0-.05.21-.19.48-.4a15.34,15.34,0,0,0,1.7-1.55c.34-.4,1.16-1.46,2.44-3.17a.63.63,0,0,1,.28,0s0,.11,0,.26v4.14h3.45"/></g></g></svg>