<svg xmlns="http://www.w3.org/2000/svg" viewBox="0 0 139.23 56.87"><defs><style>.cls-1,.cls-3{fill:#3e3a39;}.cls-2{fill:none;stroke:#3e3a39;stroke-width:0.3px;}.cls-3{font-size:3.1px;font-family:GothicBBBPr5-Medium, GothicBBBPr5 Medium-83pv-RKSJ-H;font-weight:500;}</style></defs><title>logo_image_full</title><g id="レイヤー_2" data-name="レイヤー 2"><g id="ヘッダー"><path class="cls-1" d="M30.86,5.94V1.67c0-.65.6-.62,2.34-.51a2.39,2.39,0,0,1,2.21,2.45c0,1.52-1.1,2.33-3,2.33H30.86m-1.92,5.38c0,.55-.28,1.15-1.8,1.15v.36h5.93c3,0,4.9-1.17,4.9-3.43,0-1.8-1.52-2.8-3.14-3.1v0c1.45-.32,2.5-1.13,2.5-2.71,0-2.4-2.25-3.17-5.15-3.17h-5V.73c1.52,0,1.8.61,1.8,1.15ZM30.86,6.7h.94c1.77,0,4,.41,4,2.65s-1.45,2.78-3.4,2.78c-1.38,0-1.55-.33-1.55-1Z"/><path class="cls-1" d="M45.12,7.41c0-2.31-.62-3.2-2.69-3.2a3.14,3.14,0,0,0-3,1.42c-.39.71-.23,1.46.64,1.46a.86.86,0,0,0,.83-.83c0-.49-.1-.86,0-1.09s.84-.52,1.22-.52c1.18,0,1.37.73,1.37,2.7C41.92,8,38.89,8.78,38.89,11a2,2,0,0,0,2,2,4.88,4.88,0,0,0,2.75-1.42A1.29,1.29,0,0,0,45,13a2.73,2.73,0,0,0,1.54-1v-.49c-.9.64-1.39.55-1.39-.15v-4m-1.6,3.67a2.63,2.63,0,0,1-1.65.83c-.91,0-1.32-.72-1.32-1.55,0-1.69,1.79-2,3-2.5Z"/><path class="cls-1" d="M49.32,10.08c0,1.39.18,2.3,1.37,1.83a1.81,1.81,0,0,0,.69-.57l.25.21A3.2,3.2,0,0,1,49.2,13c-1.24,0-1.52-.77-1.48-2.61V5h-.57c-.23,0-.66.12-.49-.28a14.53,14.53,0,0,0,2.66-2.8V4.4h1.85V5H49.32v5.08"/><path class="cls-1" d="M53,2.3c0-1.21-.19-1.15-1.18-1.12V.83c.64-.17,1.13-.27,1.6-.44L54.58,0V5.72h0a3.37,3.37,0,0,1,2.67-1.51c1.9,0,2.37,1.1,2.37,3.18v3.93c0,.83.28,1.17,1.19,1.24v.27h-4v-.27c.9-.07,1.18-.41,1.18-1.24V7.41c0-1.09-.08-2.2-1.43-2.2a2.55,2.55,0,0,0-2.05,1.13v5c0,.83.28,1.17,1.19,1.24v.27h-4v-.27c.9-.07,1.18-.41,1.18-1.24v-9"/><path class="cls-1" d="M65.06,9.05h.43c.59,1.75,1.9,3.33,3.89,3.33a2.14,2.14,0,0,0,2.13-2.79C70.74,7,65.6,6.85,65.6,3.25A3.16,3.16,0,0,1,68.93.11c2,0,2.9,1.39,3.35,0h.39l.42,4h-.47C72.19,2.37,71,.89,69.19.89a1.76,1.76,0,0,0-2,1.8c0,1.09,1.19,1.86,2,2.35,2.57,1.54,4.29,2.35,4.29,4.61,0,1.69-1.41,3.44-4,3.44-2,0-3.31-1.37-3.49,0h-.42l-.56-4"/><path class="cls-1" d="M80,7.41c0-2.31-.63-3.2-2.7-3.2a3.15,3.15,0,0,0-3,1.42c-.39.71-.23,1.46.64,1.46a.85.85,0,0,0,.83-.83,3.37,3.37,0,0,1,0-1.09c.18-.36.85-.52,1.22-.52,1.19,0,1.38.73,1.38,2.7C76.77,8,73.74,8.78,73.74,11a2,2,0,0,0,2,2,4.88,4.88,0,0,0,2.75-1.42A1.31,1.31,0,0,0,79.82,13a2.73,2.73,0,0,0,1.54-1v-.49c-.9.64-1.38.55-1.38-.15v-4m-1.6,3.67a2.65,2.65,0,0,1-1.66.83c-.9,0-1.32-.72-1.32-1.55,0-1.69,1.79-2,3-2.5Z"/><path class="cls-1" d="M83.24,2.3c0-1.38-.15-1.21-1.44-1.21V.83a23.18,23.18,0,0,0,3-.83V11.32c0,.83.28,1.17,1.44,1.24v.27H81.8v-.27c1.16-.07,1.44-.41,1.44-1.24v-9"/><path class="cls-1" d="M91.11,4.21c-2.6,0-4.06,2-4.06,4.52A4.12,4.12,0,0,0,91.11,13c2.61,0,4.21-2.21,4.21-4.66a4,4,0,0,0-4.21-4.14m.34,8.24c-1.79,0-2.69-2.09-2.67-4.74,0-1.64.71-2.93,2.1-2.93,2.15,0,2.71,2.76,2.71,4.46S92.91,12.45,91.45,12.45Z"/><path class="cls-1" d="M100.15,4.21c-2.59,0-4.06,2-4.06,4.52A4.13,4.13,0,0,0,100.15,13c2.62,0,4.22-2.21,4.22-4.66a4,4,0,0,0-4.22-4.14m.34,8.24c-1.78,0-2.68-2.09-2.67-4.74,0-1.64.72-2.93,2.11-2.93,2.14,0,2.71,2.76,2.71,4.46S102,12.45,100.49,12.45Z"/><path class="cls-1" d="M105.93,6.72c0-1.43-.17-1.41-1.18-1.36V5.1l2.78-.89V5.72a3.87,3.87,0,0,1,2.88-1.51c1.47,0,2.2,1,2.2,3v4.08c0,.83.28,1.17,1.18,1.24v.27h-4v-.27c.91-.07,1.19-.41,1.19-1.24v-4c0-1.09-.09-2.07-1.43-2.07a2.94,2.94,0,0,0-2,1.09v5c0,.83.28,1.17,1.18,1.24v.27h-4v-.27c.9-.07,1.18-.41,1.18-1.24V6.72"/><path class="cls-1" d="M0,39.73A5.79,5.79,0,0,0,2.77,39c.42-.35.63-1.23.63-2.66V19.49a3.84,3.84,0,0,0-.62-2.63A4.71,4.71,0,0,0,0,16.09v-.71H20.43l.19,5.33h-1a5.4,5.4,0,0,0-1.47-3.25c-.66-.48-2.12-.73-4.38-.73H8.57q-.86,0-1.05.27a1.84,1.84,0,0,0-.2,1v8.54h5.91c1.65,0,2.7-.24,3.15-.71A6,6,0,0,0,17.47,23h.9v8.67h-.9a6.26,6.26,0,0,0-1.11-2.89c-.45-.47-1.49-.7-3.13-.7H7.32v9.37c0,.76.24,1.2.73,1.34a23.87,23.87,0,0,0,4.32.21,14.8,14.8,0,0,0,5.76-.84c1.23-.56,2.36-1.91,3.37-4h1.05l-1.71,6.36H0v-.7"/><path class="cls-1" d="M33.12,34.59h.61a9.66,9.66,0,0,0,1.17,3.26,4.27,4.27,0,0,0,3.85,2.07A3.15,3.15,0,0,0,41,39.15a2.71,2.71,0,0,0,.34-3.46,4.57,4.57,0,0,0-1.65-1.39l-2.11-1.18a12.15,12.15,0,0,1-3.41-2.45,4.27,4.27,0,0,1-1.09-2.92,4.33,4.33,0,0,1,1.49-3.39A5.44,5.44,0,0,1,38.31,23a7.21,7.21,0,0,1,2.17.37,10.29,10.29,0,0,0,1.34.36,1,1,0,0,0,.48-.08.87.87,0,0,0,.27-.27h.51l.13,5.14h-.52a8.26,8.26,0,0,0-1-2.79,3.78,3.78,0,0,0-3.39-1.83,2.78,2.78,0,0,0-2.09.78,2.59,2.59,0,0,0-.76,1.85c0,1.13.87,2.14,2.59,3l2.48,1.3c2.66,1.43,4,3.07,4,5a4.41,4.41,0,0,1-1.65,3.55,6.59,6.59,0,0,1-4.33,1.37A10.58,10.58,0,0,1,36,40.39,11.3,11.3,0,0,0,34.29,40a.53.53,0,0,0-.39.16,1.08,1.08,0,0,0-.26.38h-.52v-6"/><path class="cls-1" d="M67.73,24.28a3.27,3.27,0,0,1,1.69,2.61A1.75,1.75,0,0,1,69,28a1.62,1.62,0,0,1-1.33.52,1.69,1.69,0,0,1-1.16-.45,2.64,2.64,0,0,1-.72-1.3l-.22-.89a2.36,2.36,0,0,0-.85-1.4,3,3,0,0,0-1.63-.39A4.5,4.5,0,0,0,59.46,26,7.62,7.62,0,0,0,58,30.84a8.28,8.28,0,0,0,1.62,5A5.14,5.14,0,0,0,64,38.06a5.32,5.32,0,0,0,3.47-1.25,12.12,12.12,0,0,0,2-2.28l.53.3a14.26,14.26,0,0,1-2.25,3.47,6.94,6.94,0,0,1-5.24,2.46,7.11,7.11,0,0,1-5.17-2.26A8.32,8.32,0,0,1,55,32.36a9.46,9.46,0,0,1,2.46-6.53,7.94,7.94,0,0,1,6.2-2.74,6.88,6.88,0,0,1,4,1.19"/><path class="cls-1" d="M80.2,31.86a9.11,9.11,0,0,0,2.5,6.54A8.13,8.13,0,0,0,88.8,41a7.75,7.75,0,0,0,6.13-2.71,9.45,9.45,0,0,0,2.36-6.4,8.55,8.55,0,0,0-2.44-6.4,8.4,8.4,0,0,0-6.16-2.41,8,8,0,0,0-6.11,2.55,8.79,8.79,0,0,0-2.38,6.22m8-7.74A4.57,4.57,0,0,1,92.37,27,13.21,13.21,0,0,1,93.82,33a9.78,9.78,0,0,1-1.14,5A3.61,3.61,0,0,1,89.42,40a4.67,4.67,0,0,1-4.23-2.86A13,13,0,0,1,83.67,31q0-4.17,1.89-5.85A3.78,3.78,0,0,1,88.15,24.12Z"/><path class="cls-1" d="M106.76,39.92A4.45,4.45,0,0,0,109,39.3a2.67,2.67,0,0,0,.55-2V29a7.31,7.31,0,0,0-.35-2.7,1.26,1.26,0,0,0-1.26-.81,3.79,3.79,0,0,0-.5.05l-.65.12v-.51c.72-.25,1.45-.51,2.21-.76s1.28-.44,1.57-.56c.63-.23,1.28-.5,1.94-.8.09,0,.14,0,.16.1a1.86,1.86,0,0,1,0,.42v3.09A14.73,14.73,0,0,1,115,24a3.5,3.5,0,0,1,2.28-.94,2.07,2.07,0,0,1,1.53.58,2.09,2.09,0,0,1,.14,2.75,1.41,1.41,0,0,1-1.13.52,2.1,2.1,0,0,1-1.4-.64,2,2,0,0,0-1.12-.65c-.43,0-1,.35-1.58,1a3.2,3.2,0,0,0-.93,2.15v8.25a2.79,2.79,0,0,0,.74,2.24,3.66,3.66,0,0,0,2.47.59v.51h-9.25v-.51"/><path class="cls-1" d="M138.26,23.41V24.7h-3.85l0,10.61a7,7,0,0,0,.25,2.12,1.75,1.75,0,0,0,1.79,1.27,2.16,2.16,0,0,0,1.18-.31,6.07,6.07,0,0,0,1.15-1l.49.42-.42.55a6.11,6.11,0,0,1-2.06,1.84,4.79,4.79,0,0,1-2.11.54,3,3,0,0,1-3-1.94,7.91,7.91,0,0,1-.43-2.93V24.7h-2.06l-.14-.11a.2.2,0,0,1-.05-.15.47.47,0,0,1,.08-.28,6.32,6.32,0,0,1,.53-.44A15.58,15.58,0,0,0,131.42,22q.57-.66,2.69-3.48c.18,0,.28,0,.31,0s.06.12.06.28v4.56h3.78"/><path class="cls-1" d="M22.22,50.61c.56,0,1.48.19,1.48.71a.27.27,0,0,1-.24.29c-.14,0-.22-.09-.52-.41a2.52,2.52,0,0,0-.72-.54v0m.55-.74H23c.23,0,1.33.07,1.33.64a.27.27,0,0,1-.28.26c-.09,0-.2-.1-.34-.22a4.69,4.69,0,0,0-1-.62ZM21.5,51.36a4.08,4.08,0,0,1,1.58,1.11,3.06,3.06,0,0,1,1,2c0,.58-.31.61-.37.61-.28,0-.35-.28-.52-.81a7.35,7.35,0,0,0-1.34-2.41,2.11,2.11,0,0,0-.43-.45Zm-4.7,4.11c1.33-1.15,2.45-3,2.45-3.59,0-.28-.15-.41-.54-.61a1.9,1.9,0,0,1,.53-.09,1.39,1.39,0,0,1,.77.38c.12.09.31.22.31.36s-.12.25-.27.3a6.75,6.75,0,0,1-3.26,3.32Z"/><path class="cls-1" d="M27.27,56.21a10.42,10.42,0,0,0,4.51-5.1c-.15,0-.66.13-1.43.3a3.86,3.86,0,0,0-.74.22,1.19,1.19,0,0,1-.41.17,1.11,1.11,0,0,1-.68-1,.64.64,0,0,1,.08-.37c.36.45.43.54.71.54a9.77,9.77,0,0,0,2.47-.39l.26-.2c.05,0,.09-.08.14-.08a.4.4,0,0,1,.17.09l.47.47c.08.08.15.14.15.23s-.25.19-.41.27a18.15,18.15,0,0,1-1.29,2.08,5.91,5.91,0,0,1,1.95,1.34,1.38,1.38,0,0,1,.47.93c0,.2-.08.47-.34.47S33,56,32.9,55.86a7.13,7.13,0,0,0-1.76-2.21,7.09,7.09,0,0,1-3.87,2.64v-.08"/><path class="cls-1" d="M39.64,56.81a5.19,5.19,0,0,0,1.37-3c0-.23,0-1.28,0-1.49a12.2,12.2,0,0,0-1.62.2c0,.26,0,1.4,0,1.63s0,.54-.28.54-.42-.54-.42-.67,0-.55,0-.74,0-.56,0-.64a9.21,9.21,0,0,0-1.11.26,1.13,1.13,0,0,1-.22.11c-.34,0-.72-.59-.72-1a.81.81,0,0,1,.09-.43,2.79,2.79,0,0,1,.24.35.78.78,0,0,0,.58.23c.18,0,1-.1,1.14-.12a5.38,5.38,0,0,0-.14-1.38c-.09-.19-.21-.23-.6-.34a.86.86,0,0,1,.55-.23,1.94,1.94,0,0,1,.89.35.17.17,0,0,1,.07.13c0,.06-.1.32-.11.37a5.73,5.73,0,0,0,0,1l1.64-.16c0-.2,0-1,0-1.11s0-.5-.15-.61a1.1,1.1,0,0,0-.58-.2c.27-.18.35-.23.54-.23s1.08.17,1.08.48c0,.07-.08.35-.09.41-.06.32-.09.92-.11,1.24l.75,0c.22,0,.45-.13.61-.13s.89.27.89.58-.12.29-.26.29-1.33-.19-2-.22c0,.24,0,1.32-.06,1.53a3.84,3.84,0,0,1-2,3l-.06-.06"/><path class="cls-1" d="M53.88,52.11A8.12,8.12,0,0,1,51.52,55a8.81,8.81,0,0,0-.86.71.84.84,0,0,1-.21.15c-.08,0-.11,0-.29-.31a1.8,1.8,0,0,1-.31-.6,3.24,3.24,0,0,1,.13-.33,8.85,8.85,0,0,0,.09-1.58c0-.28,0-2.09,0-2.21s-.32-.3-.69-.41a1.16,1.16,0,0,1,.59-.21,1.64,1.64,0,0,1,.91.34.22.22,0,0,1,.09.18c0,.08-.12.43-.13.5-.08.35-.16,2.8-.16,3.24,0,.09,0,.14.09.14A10,10,0,0,0,53.81,52l.07.07M46.9,56a5.36,5.36,0,0,0,1.56-4.09c0-.35,0-.61-.26-.71l-.45-.14.5-.2a.36.36,0,0,1,.16,0c.17,0,.89.16.89.45a3,3,0,0,0-.1.44c0,.13-.11,1-.14,1.25A3.77,3.77,0,0,1,47,56Z"/><path class="cls-1" d="M60.46,53a7,7,0,0,0,1.29-.1,4,4,0,0,1,.5-.08c.2,0,.88.17.88.5s-.33.35-.62.35l-1.2,0H59a9.17,9.17,0,0,0-1.52.14l-.39.05c-.22,0-.77-.69-.77-1a1.23,1.23,0,0,1,.13-.49c.14.38.33.69,1.13.69h2.87"/><path class="cls-1" d="M72.11,51.11a8.39,8.39,0,0,1-2.68,3.39c-.24.2-1.46,1.14-1.53,1.22s-.24.29-.37.29c-.31,0-.92-.79-.92-1.22a1.53,1.53,0,0,1,.06-.4c.27.46.53.59.65.59a.6.6,0,0,0,.33-.12,19.44,19.44,0,0,0,4.42-3.76h0m-5.7-.7h.29c.42,0,2,.13,2,1.08a.38.38,0,0,1-.34.41c-.14,0-.26-.12-.55-.42a4.92,4.92,0,0,0-1.35-1Z"/><path class="cls-1" d="M82,51.37a17.71,17.71,0,0,0,2.54-.27.76.76,0,0,1,.34-.12c.12,0,.7.13.7.45,0,.11-.08.27-.35.27l-1.34,0-.4,0c.23.16.26.2.26.3s-.08.23-.09.34c-.07.35-.15,2-.15,2.22.88-.05,1.26-.07,1.5-.07a6.53,6.53,0,0,0,1-.09c.28,0,.91.33.91.71a.2.2,0,0,1-.2.21c-.1,0-.54-.13-.64-.14a13.54,13.54,0,0,0-4.86.08,1.77,1.77,0,0,0-.54.18c-.13.06-.14.07-.2.07-.25,0-.78-.58-.78-1a1.08,1.08,0,0,1,.06-.33,1.08,1.08,0,0,0,1,.6L83,54.59c0-.58,0-1.17,0-1.75,0-.89-.1-.93-.38-1s-.87.14-1,.14-.17,0-.39-.25a.94.94,0,0,1-.35-.64,1.76,1.76,0,0,0,1.16.31"/><path class="cls-1" d="M89.73,56.21a10.42,10.42,0,0,0,4.51-5.1c-.15,0-.66.13-1.43.3a3.86,3.86,0,0,0-.74.22,1.19,1.19,0,0,1-.41.17,1.11,1.11,0,0,1-.68-1,.64.64,0,0,1,.08-.37c.36.45.43.54.71.54a9.77,9.77,0,0,0,2.47-.39l.26-.2s.09-.08.14-.08a.35.35,0,0,1,.17.09l.47.47c.07.08.15.14.15.23s-.25.19-.41.27a18.15,18.15,0,0,1-1.29,2.08,5.91,5.91,0,0,1,2,1.34,1.38,1.38,0,0,1,.47.93c0,.2-.08.47-.33.47s-.37-.22-.46-.36a7,7,0,0,0-1.76-2.21,7.09,7.09,0,0,1-3.87,2.64v-.08"/><path class="cls-1" d="M103.66,51.65c0-.09-.06-.11-.15-.11a17.69,17.69,0,0,0-3,.4,1.06,1.06,0,0,1-.43.15c-.36,0-.68-.57-.73-.67a1,1,0,0,1-.13-.47,1.55,1.55,0,0,1,0-.23,1.48,1.48,0,0,0,1.2.6c.16,0,1.81-.13,2.53-.2.19,0,.33,0,.54-.07l.28-.17a.67.67,0,0,1,.23-.11.47.47,0,0,1,.29.16l.33.33a.43.43,0,0,1,.16.26c0,.12-.21.26-.37.38a23.37,23.37,0,0,0-.5,2.66c.15,0,.41.18.41.41s-.3.27-.59.27l-1.11,0a7,7,0,0,0-2.18.29c-.08,0-.41.13-.48.13-.23,0-.79-.64-.79-1.09a.82.82,0,0,1,0-.28,2.35,2.35,0,0,0,.54.41,1,1,0,0,0,.58.17c.51,0,2.48-.21,3-.26.21-1.3.35-2.83.35-2.93"/><path class="cls-1" d="M112.05,53a7,7,0,0,0,1.29-.1,4.33,4.33,0,0,1,.5-.08c.2,0,.88.17.88.5s-.33.35-.62.35l-1.2,0h-2.3a9.17,9.17,0,0,0-1.52.14l-.39.05c-.22,0-.77-.69-.77-1a1.23,1.23,0,0,1,.13-.49c.14.38.33.69,1.13.69h2.87"/><path class="cls-1" d="M121.45,53.2a.82.82,0,0,1,.31.62.38.38,0,0,1-.35.43A.52.52,0,0,1,121,54c-.9-1-1.14-1.25-1.77-1.46,0,.54,0,2.25,0,2.48s0,1,0,1.12c0,.37-.17.64-.41.64s-.46-.35-.46-.86c0-.16.1-.94.1-1.2s.06-.86.06-1.63c0-.44,0-2.45-.1-2.77,0-.15,0-.2-.69-.45a1.37,1.37,0,0,1,.58-.2,2.82,2.82,0,0,1,1,.28.21.21,0,0,1,.13.18,2.8,2.8,0,0,1-.13.42,9.29,9.29,0,0,0-.12,1.77,4.27,4.27,0,0,1,2.19.87"/><path class="cls-2" d="M75.66,50.28a1.58,1.58,0,1,1-1.58-1.57A1.57,1.57,0,0,1,75.66,50.28Z"/><text class="cls-3" transform="translate(73.26 51.34) scale(0.95 1)">R</text></g></g></svg>