<svg xmlns="http://www.w3.org/2000/svg" viewBox="0 0 95.24 26.69"><defs><style>.cls-1{fill:#004ea2;}.cls-2{fill:#e8374a;}</style></defs><title>アセット 2</title><g id="レイヤー_2" data-name="レイヤー 2"><g id="ヘッダー"><path class="cls-1" d="M11.12.76V4.42c0,.76-1,.62-1,.62H5.9c-.68,0-1.09.35-1.09,2.06,0,1.3-.21,1.85,2.05,3.77s5.29,2.34,5.29,9.19-4.6,6.45-4.6,6.45H1.93a1.13,1.13,0,0,1-1.17-1.3V22.46c0-.92,1.23-.89,1.23-.89H5.83c1.24,0,1.38-.27,1.45-2.13s-.35-2.74-3.71-4.8S0,10.19,0,5.25,5.15,0,5.15,0h5.21A.74.74,0,0,1,11.12.76Z"/><path class="cls-1" d="M66.58.76V4.42c0,.76-1,.62-1,.62H61.36c-.68,0-1.09.35-1.09,2.06,0,1.3-.21,1.85,2.06,3.77s5.28,2.34,5.28,9.19S63,26.51,63,26.51H57.39a1.13,1.13,0,0,1-1.17-1.3V22.46c0-.92,1.23-.89,1.23-.89H61.3c1.23,0,1.37-.27,1.44-2.13s-.35-2.74-3.71-4.8-3.57-4.45-3.57-9.39S60.61,0,60.61,0h5.21A.74.74,0,0,1,66.58.76Z"/><path class="cls-1" d="M48.13,0a.79.79,0,0,0-.79.78V25.73a.79.79,0,0,0,.79.78h3.38a.78.78,0,0,0,.78-.78V.81A.78.78,0,0,0,51.51,0Z"/><rect class="cls-1" x="90.3" y="0.03" width="4.95" height="26.48" rx="0.78"/><path class="cls-1" d="M40.53,13.69a1.33,1.33,0,0,1,0-.74L44.38,1.14A2.06,2.06,0,0,0,44.44.4c0-.2-.66-.37-.87-.37H40.76A2.37,2.37,0,0,0,40,.17l-.42.3a2.7,2.7,0,0,0-.36.67l-3.09,9.37a.58.58,0,0,1-.51.38H35a.41.41,0,0,1-.39-.4V1.2a2,2,0,0,0-.16-.74L34.21.19A2.14,2.14,0,0,0,33.47,0H30.86a2.14,2.14,0,0,0-.75.16l-.26.27a2,2,0,0,0-.16.74V25.34a2.14,2.14,0,0,0,.16.75l.26.25a2,2,0,0,0,.75.17h2.61a2,2,0,0,0,.74-.17l.26-.25a2.14,2.14,0,0,0,.16-.75V16.21a.39.39,0,0,1,.39-.39h.62a.59.59,0,0,1,.52.37l3.05,9.26a2.59,2.59,0,0,0,.37.67l.41.29a2.43,2.43,0,0,0,.75.14h2.82a1.94,1.94,0,0,0,.72-.16c.18-.09.15-.74.08-.94Z"/><path class="cls-2" d="M23.68,16.28a3,3,0,1,0-3-3A3,3,0,0,0,23.68,16.28Z"/><path class="cls-1" d="M26.3.77A.77.77,0,0,0,25.53,0H22.28c-7.18,0-6.74,7.73-6.79,8.15,0,0-.25,2.82-.25,5.56a44,44,0,0,0,.24,4.76c0,.43-.38,8.22,6.71,8.22h3.43a.78.78,0,0,0,.78-.78V22.54a.79.79,0,0,0-.78-.79H22c-.61,0-1.44,0-1.71-3h0v-.09h0a44.88,44.88,0,0,1-.3-4.93c0-2.51.3-5.85.3-5.88h0a.38.38,0,0,0,0-.1h0c.06-1.28.42-2.79,1.79-2.79h3.49a.77.77,0,0,0,.77-.78Z"/><path class="cls-1" d="M79,21.85c1.85,0,2.08-2.47,2.08-2.47V.81A.78.78,0,0,1,81.84,0h3.39A.78.78,0,0,1,86,.81v18s-.51,7.73-5,7.73H75.89c-4.53,0-5-7.73-5-7.73V.81A.78.78,0,0,1,71.64,0H75a.78.78,0,0,1,.78.78V19.38s.5,2.47,2.22,2.47Z"/></g></g></svg>